<svg width="92" height="39" viewBox="0 0 92 39" fill="none" xmlns="http://www.w3.org/2000/svg">
<g clip-path="url(#clip0_12433_4362)">
<path d="M16.5363 5.56947C15.4647 6.83751 13.7502 7.83766 12.0356 7.69478C11.8213 5.98025 12.6607 4.15856 13.643 3.0334C14.7146 1.72964 16.5899 0.800931 18.1079 0.729492C18.2865 2.51546 17.59 4.26572 16.5363 5.56947ZM18.0901 8.03411C15.6076 7.89124 13.4823 9.44503 12.3035 9.44503C11.1069 9.44503 9.30311 8.10555 7.33854 8.14127C4.7846 8.17699 2.40926 9.62363 1.1055 11.9275C-1.57345 16.5353 0.408973 23.3577 2.99863 27.1083C4.26667 28.9657 5.78475 31.0017 7.78503 30.9303C9.67816 30.8588 10.4283 29.6979 12.7143 29.6979C15.0182 29.6979 15.679 30.9303 17.6793 30.8945C19.751 30.8588 21.0548 29.0371 22.3228 27.1797C23.7695 25.0723 24.3588 23.0184 24.3946 22.9113C24.3588 22.8755 20.394 21.3575 20.3583 16.7854C20.3225 12.9634 23.4837 11.1417 23.6266 11.0345C21.8406 8.39131 19.0545 8.10555 18.0901 8.03411ZM32.4314 2.8548V30.6981H36.7535V21.1789H42.7365C48.2016 21.1789 52.0414 17.4283 52.0414 11.999C52.0414 6.56962 48.273 2.8548 42.8794 2.8548H32.4314ZM36.7535 6.49818H41.7363C45.4869 6.49818 47.6301 8.49847 47.6301 12.0168C47.6301 15.5352 45.4869 17.5533 41.7185 17.5533H36.7535V6.49818ZM59.9354 30.9124C62.6501 30.9124 65.1683 29.5372 66.3113 27.3583H66.4006V30.6981H70.4012V16.839C70.4012 12.8205 67.1864 10.2309 62.2393 10.2309C57.6493 10.2309 54.256 12.8562 54.131 16.4639H58.0244C58.3459 14.7494 59.9354 13.6242 62.1143 13.6242C64.7575 13.6242 66.2399 14.8565 66.2399 17.1247V18.6606L60.8462 18.9821C55.8277 19.2857 53.113 21.3396 53.113 24.9115C53.113 28.5192 55.917 30.9124 59.9354 30.9124ZM61.0963 27.6084C58.7924 27.6084 57.3279 26.5011 57.3279 24.8044C57.3279 23.0541 58.7388 22.0361 61.4356 21.8754L66.2399 21.5718V23.1434C66.2399 25.7509 64.0253 27.6084 61.0963 27.6084ZM75.7412 38.2706C79.9561 38.2706 81.9386 36.6632 83.6709 31.7875L91.2613 10.4988H86.8678L81.7778 26.9475H81.6885L76.5985 10.4988H72.08L79.4025 30.7695L79.0096 32.0019C78.3487 34.0914 77.2772 34.8951 75.3662 34.8951C75.0268 34.8951 74.366 34.8594 74.0981 34.8237V38.1634C74.3482 38.2349 75.4198 38.2706 75.7412 38.2706Z" fill="#1a1a1a"/>
</g>
<defs>
<clipPath id="clip0_12433_4362">
<rect width="91.4417" height="37.5411" fill="white" transform="translate(0 0.729492)"/>
</clipPath>
</defs>
</svg>
