<svg width="67" height="39" viewBox="0 0 67 39" fill="none" xmlns="http://www.w3.org/2000/svg">
<path d="M24.7495 38.9415C16.9193 38.2569 10.0038 35.3527 5.50573 30.8547C2.93847 28.2928 1.38207 25.5116 0.681422 22.233C0.360515 20.7407 0.360515 18.2697 0.686771 16.7615C1.66554 12.2046 4.60719 8.22 9.2443 5.17672C19.8182 -1.75488 36.0187 -1.72279 46.4963 5.25695C47.8869 6.18223 48.7855 6.92032 50.0477 8.16116C51.6362 9.72826 52.754 11.29 53.9307 13.5792C53.9735 13.6647 54.1927 13.7717 54.412 13.8145C55.1555 13.9696 56.1449 14.5472 56.9419 15.2907C57.5623 15.8683 58.0383 16.4994 59.2203 18.2858C60.413 20.0882 65.8043 28.4104 66.1305 28.956C66.2589 29.1699 66.0075 29.5069 65.724 29.5069C65.5208 29.5069 65.3817 29.3731 65.0822 28.9025C64.8736 28.5709 63.4991 26.4368 62.0282 24.1584C56.8242 16.1036 56.5461 15.7292 55.0966 15.0018L54.3372 14.6221H52.1015C49.8658 14.6221 49.8658 14.6221 49.8124 14.8574C49.5182 16.1464 49.4594 16.462 49.5235 16.5208C49.5663 16.5582 50.8339 17.2803 52.3422 18.1253L55.0859 19.6603L54.9148 20.0187C54.8185 20.2166 54.7115 20.377 54.6741 20.377C54.6367 20.377 52.3261 19.0988 49.5396 17.5317C46.753 15.9699 44.3088 14.6435 44.1109 14.59C43.3193 14.3707 42.0999 15.2479 42.0999 16.0394C42.0999 16.8417 42.3352 17.0717 47.2344 21.083C50.2884 23.5861 52.0373 25.089 52.3047 25.442C52.7915 26.0892 53.2835 27.0412 53.7328 28.2125C54.5297 30.277 55.824 31.427 57.9474 31.9618L58.648 32.1383L58.5892 32.518C58.5571 32.7266 58.5143 32.9192 58.4876 32.9459C58.3966 33.0475 56.99 32.5983 56.177 32.2078C54.9041 31.5981 54.0269 30.7263 53.1658 29.2073C53.1605 29.1966 52.6577 29.3678 52.0587 29.5871C50.989 29.9775 50.9355 30.0096 49.9247 30.9991C45.6085 35.2137 39.415 37.9039 31.9432 38.8185C30.7184 38.9897 26.0438 39.0592 24.7495 38.9415ZM32.1892 37.6472C35.6175 37.1926 38.2811 36.5133 41.0623 35.3741C43.9825 34.1761 46.7423 32.4592 48.6678 30.63L49.4273 29.908L47.5125 28.9934C45.4694 28.0146 45.2662 27.8542 45.0041 26.9824C44.8383 26.4315 45.0255 25.8432 45.5496 25.2816L45.9561 24.8377L45.0683 24.1637C44.3676 23.6289 44.1483 23.3989 44.0093 23.0459C43.79 22.4736 43.8702 21.8532 44.2232 21.3558L44.4906 20.9761L41.6881 20.484C40.1477 20.2112 38.709 19.9385 38.495 19.8743C38.0725 19.7513 37.65 19.2699 37.5376 18.8046C37.4788 18.5532 38.8534 11.8463 39.1582 10.8889C39.2973 10.461 39.8803 9.9422 40.3242 9.86197C40.7895 9.7764 49.0475 11.2258 49.4594 11.4665C50.1119 11.8463 50.3151 12.456 50.1119 13.3973L50.0263 13.7877H50.4809C50.7323 13.7877 51.326 13.7556 51.802 13.7182L52.6684 13.6487L52.2406 12.8518C50.9516 10.4503 48.6036 8.0221 45.7101 6.09666C44.3569 5.19812 41.4741 3.77543 39.7359 3.15501C37.2649 2.27251 34.2751 1.6093 31.403 1.30979C29.8252 1.14399 25.7015 1.14933 24.1719 1.31514C20.5082 1.71092 17.1814 2.53993 14.2719 3.78078C7.5328 6.6529 3.00265 11.413 1.84204 16.8364C1.53718 18.2537 1.51578 20.7354 1.7939 22.0244C2.40897 24.8751 3.74609 27.3407 5.92291 29.6352C10.3621 34.3098 17.144 37.1872 25.2736 37.8344C26.3647 37.92 31.0821 37.7916 32.1892 37.6472ZM30.7077 32.5448C30.2905 32.4218 29.8626 31.9244 29.7717 31.4483C29.7129 31.1381 29.7824 30.9242 30.2263 30.0631C32.0234 26.5866 32.8043 23.3882 32.8043 19.5106C32.8043 15.7613 32.1143 12.8411 30.3975 9.34317C30.0284 8.59439 29.7289 7.89374 29.7289 7.79212C29.7289 7.41773 30.0391 6.87753 30.3761 6.66894C30.836 6.38013 31.6116 6.43361 31.9859 6.78126C32.1304 6.91497 32.4994 7.5247 32.8096 8.13442C34.0398 10.5466 34.8795 13.1941 35.2966 15.9485C35.5534 17.6547 35.6069 20.8851 35.3983 22.4469C35.0185 25.3244 34.259 27.897 33.0396 30.4107C32.3015 31.9297 31.8415 32.5555 31.4565 32.5555C31.3816 32.5555 31.2532 32.5769 31.1783 32.5983C31.1035 32.6197 30.8895 32.5983 30.7077 32.5448ZM25.7069 29.9294C25.065 29.7422 24.5997 28.9506 24.7869 28.3623C24.8297 28.2179 25.1346 27.56 25.4608 26.8968C26.8354 24.0889 27.4077 21.083 27.1295 18.1307C26.8996 15.7025 26.4663 14.1728 25.3699 11.9372C24.6372 10.4343 24.5997 10.2043 25.0276 9.59455C25.4341 9.01692 26.4503 8.92599 26.9798 9.4127C27.3488 9.74965 28.4988 12.1511 28.9427 13.5096C30.4082 18.0023 30.1835 22.832 28.3062 27.2445C27.3381 29.5069 26.6589 30.2075 25.7069 29.9294ZM20.5509 27.2766C20.1552 27.1001 19.8129 26.6775 19.7166 26.255C19.6578 25.9983 19.7594 25.7095 20.23 24.7574C21.9629 21.2488 21.979 17.874 20.2889 14.4456C19.5454 12.9427 19.5294 12.6432 20.1552 12.0495C20.4654 11.7553 20.5991 11.7072 21.0323 11.7072C21.765 11.7072 22.1448 12.0762 22.7973 13.4187C23.8028 15.4832 24.2146 17.2749 24.2093 19.5694C24.2039 21.9281 23.8189 23.5487 22.7492 25.7255C22.1341 26.9717 21.8292 27.3033 21.2142 27.3835C21.027 27.3996 20.7274 27.3568 20.5509 27.2766ZM15.7373 24.8056C15.4218 24.6772 15.0634 24.2493 14.9565 23.8749C14.8388 23.4578 14.9351 23.1261 15.4057 22.3506C16.0155 21.3505 16.1545 20.8156 16.1545 19.5106C16.1545 18.2056 16.0155 17.6654 15.4057 16.6706C15.1971 16.3336 14.9939 15.9271 14.9458 15.7667C14.7479 15.1088 15.2988 14.3012 16.0368 14.1621C16.6626 14.0445 17.0905 14.3226 17.6681 15.2211C19.3315 17.8205 19.3315 21.2863 17.6681 23.8642C17.0798 24.7681 16.4273 25.089 15.7373 24.8056ZM51.588 28.8383C52.1443 28.6404 52.6256 28.4532 52.6577 28.4211C52.6898 28.389 52.5829 28.036 52.4171 27.6295C52.0855 26.8005 52.1389 26.8219 50.9516 27.0466C49.6733 27.2926 48.9299 27.0733 47.5286 26.0411C47.1488 25.7576 46.753 25.5276 46.6568 25.5276C46.5551 25.5276 46.3412 25.672 46.1701 25.8539C45.8117 26.239 45.7582 26.838 46.047 27.1963C46.3038 27.5065 49.8177 29.1806 50.2349 29.1913C50.4221 29.1966 51.0265 29.0362 51.588 28.8383ZM51.0318 26.148C51.5506 26.0411 51.6094 26.009 51.5185 25.8378C51.4169 25.6506 46.5551 21.6179 46.1326 21.3665C45.785 21.1633 45.5015 21.2114 45.2127 21.5216C44.3676 22.4255 44.4693 22.618 46.6568 24.2921C49.2989 26.3192 49.5824 26.4368 51.0318 26.148ZM44.5067 20.0347C44.5067 20.008 43.9558 19.532 43.2819 18.9811C41.6185 17.6119 41.2602 17.0984 41.2602 16.0822C41.2602 15.2372 41.8271 14.4189 42.7364 13.9482C43.1856 13.7129 43.9932 13.6433 44.4479 13.7931C44.7688 13.9001 46.2235 14.6863 48.2346 15.8415L48.6571 16.0876L49.0047 14.4296C49.3631 12.7341 49.3684 12.2848 49.0368 12.1832C48.9352 12.1511 46.9937 11.7981 44.726 11.397C40.6932 10.6856 40.2493 10.6428 40.0621 10.9477C39.9605 11.1082 38.4255 18.2216 38.4255 18.5211C38.4255 18.6709 38.5004 18.8581 38.5966 18.9383C38.6876 19.0185 39.9979 19.302 41.5062 19.5694C44.4158 20.0936 44.5067 20.1096 44.5067 20.0347Z" fill="#1a1a1a"/>
</svg>
