<svg width="80" height="39" viewBox="0 0 80 39" fill="none" xmlns="http://www.w3.org/2000/svg">
<g clip-path="url(#clip0_12433_4366)">
<path d="M37.8057 20.1471V29.408H34.8184V6.50488H42.5855C44.4775 6.50488 46.2699 7.20193 47.664 8.49645C49.0581 9.6914 49.7551 11.4838 49.7551 13.3758C49.7551 15.2678 49.0581 16.9606 47.664 18.2552C46.2699 19.5497 44.5771 20.2467 42.5855 20.2467L37.8057 20.1471ZM37.8057 9.29308V17.2594H42.7846C43.88 17.2594 44.9754 16.8611 45.6724 16.0644C47.2657 14.5707 47.2657 12.0813 45.772 10.5876L45.6724 10.488C44.8758 9.6914 43.88 9.1935 42.7846 9.29308H37.8057Z" fill="#1a1a1a"/>
<path d="M56.6258 13.2764C58.8165 13.2764 60.5094 13.8738 61.8039 15.0688C63.0984 16.2637 63.6959 17.857 63.6959 19.8486V29.4081H60.9077V27.2174H60.8081C59.6132 29.0098 57.9203 29.906 55.9288 29.906C54.2359 29.906 52.7422 29.4081 51.5473 28.4123C50.4519 27.4165 49.7549 26.0224 49.7549 24.5287C49.7549 22.9355 50.3524 21.641 51.5473 20.6452C52.7422 19.6494 54.4351 19.2511 56.4266 19.2511C58.2191 19.2511 59.6132 19.5498 60.7085 20.2469V19.5498C60.7085 18.554 60.3102 17.5582 59.5136 16.9608C58.717 16.2637 57.7212 15.8654 56.6258 15.8654C54.933 15.8654 53.6384 16.5625 52.7422 17.9566L50.1532 16.3633C51.7465 14.2722 53.8376 13.2764 56.6258 13.2764ZM52.8418 24.6283C52.8418 25.425 53.2401 26.122 53.8376 26.5203C54.5347 27.0182 55.3313 27.3169 56.1279 27.3169C57.3229 27.3169 58.5178 26.8191 59.414 25.9228C60.4098 25.0266 60.9077 23.9313 60.9077 22.7363C60.0115 22.0393 58.717 21.641 57.0241 21.641C55.8292 21.641 54.8334 21.9397 54.0368 22.5372C53.2401 23.0351 52.8418 23.7321 52.8418 24.6283Z" fill="#1a1a1a"/>
<path d="M79.8282 13.7744L69.9699 36.3787H66.9825L70.6669 28.512L64.1943 13.874H67.3808L72.061 25.1264H72.1606L76.7412 13.874H79.8282V13.7744Z" fill="#1a1a1a"/>
<path d="M25.956 18.1554C25.956 17.2592 25.8565 16.363 25.7569 15.4668H13.3096V20.5453H20.3796C20.0809 22.1386 19.1847 23.6322 17.7906 24.5284V27.8145H22.0725C24.5619 25.5242 25.956 22.1386 25.956 18.1554Z" fill="#4285F4"/>
<path d="M13.3098 31.0011C16.8947 31.0011 19.882 29.8062 22.0728 27.8146L17.7909 24.5285C16.5959 25.3251 15.1023 25.823 13.3098 25.823C9.92417 25.823 6.93681 23.5327 5.94103 20.3462H1.55957V23.7319C3.84988 28.2129 8.33091 31.0011 13.3098 31.0011Z" fill="#34A853"/>
<path d="M5.94205 20.3465C5.34458 18.7532 5.34458 16.9608 5.94205 15.268V11.8823H1.5606C-0.331397 15.5667 -0.331397 19.9482 1.5606 23.7322L5.94205 20.3465Z" fill="#FBBC04"/>
<path d="M13.3099 9.89047C15.2019 9.89047 16.9943 10.5875 18.3884 11.882L22.1724 8.09806C19.7825 5.90733 16.596 4.61281 13.4094 4.71239C8.43052 4.71239 3.84991 7.50059 1.65918 11.9816L6.04064 15.3673C6.93684 12.1808 9.9242 9.89047 13.3099 9.89047Z" fill="#EA4335"/>
</g>
<defs>
<clipPath id="clip0_12433_4366">
<rect width="79.6628" height="37.9394" fill="white" transform="translate(0.165039 0.530273)"/>
</clipPath>
</defs>
</svg>
