<svg width="1568" height="1167" viewBox="0 0 1568 1167" fill="none" xmlns="http://www.w3.org/2000/svg">
<path d="M1061.59 619.401L1063.49 617.491C1077.24 603.681 1084.95 584.968 1084.95 565.429V188.798C1084.95 148.139 1117.76 115.176 1158.22 115.176H1494.73C1535.19 115.176 1568 148.139 1568 188.798V567.339C1568 607.997 1535.19 640.96 1494.73 640.96H1158.22C1138.79 640.96 1120.15 648.71 1106.41 662.52C1092.66 676.33 1084.95 695.043 1084.95 714.582V1093.12C1084.95 1133.78 1052.14 1166.75 1011.68 1166.75H675.172C634.706 1166.75 601.898 1133.78 601.898 1093.12V714.582C601.898 673.924 634.706 640.96 675.172 640.96H1009.78C1029.2 640.96 1047.85 633.211 1061.59 619.401Z" fill="#01DE5B"/>
<path d="M459.693 504.207L461.594 502.297C475.338 488.487 483.051 469.774 483.051 450.235V73.622C483.051 32.9637 515.859 0 556.325 0H892.828C933.294 0 966.102 32.9637 966.102 73.622V452.163C966.102 492.821 933.294 525.785 892.828 525.785H556.325C536.896 525.785 518.253 533.534 504.509 547.344C490.764 561.154 483.051 579.867 483.051 599.407V977.948C483.051 1018.61 450.243 1051.57 409.777 1051.57H73.2737C32.8078 1051.57 0 1018.61 0 977.948V599.407C0 558.748 32.8078 525.785 73.2737 525.785H407.876C427.305 525.785 445.948 518.035 459.693 504.225V504.207Z" fill="#01DE5B"/>
</svg>
