<svg width="1003" height="256" viewBox="0 0 1003 256" fill="none" xmlns="http://www.w3.org/2000/svg">
<path d="M930.324 255.572C920.397 255.572 910.585 254.303 900.888 251.763C891.423 249.223 882.534 245.645 874.223 241.028C866.143 236.179 859.217 230.638 853.445 224.405L883.573 193.93C889.114 199.933 895.694 204.666 903.313 208.129C910.931 211.361 919.243 212.977 928.246 212.977C934.48 212.977 939.213 212.053 942.445 210.207C945.908 208.36 947.64 205.82 947.64 202.588C947.64 198.432 945.562 195.315 941.406 193.238C937.481 190.929 932.402 188.967 926.169 187.35C919.935 185.503 913.355 183.541 906.429 181.463C899.503 179.385 892.923 176.5 886.69 172.806C880.457 169.112 875.377 164.033 871.453 157.568C867.528 150.873 865.565 142.446 865.565 132.288C865.565 121.437 868.336 112.087 873.877 104.237C879.418 96.157 887.267 89.8081 897.425 85.1907C907.584 80.5733 919.473 78.2646 933.095 78.2646C947.409 78.2646 960.568 80.8042 972.573 85.8833C984.809 90.7316 994.737 98.004 1002.36 107.7L972.227 138.175C966.917 131.942 960.914 127.555 954.219 125.016C947.755 122.476 941.406 121.206 935.173 121.206C929.17 121.206 924.668 122.13 921.667 123.977C918.665 125.593 917.165 128.017 917.165 131.249C917.165 134.712 919.127 137.483 923.052 139.56C926.977 141.638 932.056 143.485 938.289 145.101C944.523 146.717 951.103 148.68 958.029 150.989C964.955 153.297 971.535 156.414 977.768 160.339C984.001 164.263 989.081 169.573 993.005 176.269C996.93 182.733 998.892 191.275 998.892 201.895C998.892 218.287 992.659 231.331 980.192 241.028C967.956 250.724 951.333 255.572 930.324 255.572Z" fill="black"/>
<path d="M750.533 255.226C733.218 255.226 717.519 251.417 703.436 243.798C689.583 235.949 678.617 225.329 670.537 211.938C662.456 198.548 658.416 183.541 658.416 166.919C658.416 150.296 662.456 135.405 670.537 122.246C678.617 109.086 689.583 98.697 703.436 91.0783C717.288 83.2287 732.987 79.304 750.533 79.304C768.079 79.304 783.778 83.1133 797.63 90.732C811.482 98.3507 822.449 108.855 830.529 122.246C838.61 135.405 842.65 150.296 842.65 166.919C842.65 183.541 838.61 198.548 830.529 211.938C822.449 225.329 811.482 235.949 797.63 243.798C783.778 251.417 768.079 255.226 750.533 255.226ZM750.533 207.09C758.152 207.09 764.847 205.474 770.619 202.242C776.39 198.779 780.777 194.046 783.778 188.043C787.01 181.81 788.626 174.768 788.626 166.919C788.626 159.069 787.01 152.259 783.778 146.487C780.546 140.484 776.044 135.867 770.272 132.635C764.731 129.172 758.152 127.44 750.533 127.44C743.145 127.44 736.565 129.172 730.794 132.635C725.022 135.867 720.52 140.484 717.288 146.487C714.056 152.49 712.439 159.416 712.439 167.265C712.439 174.884 714.056 181.81 717.288 188.043C720.52 194.046 725.022 198.779 730.794 202.242C736.565 205.474 743.145 207.09 750.533 207.09Z" fill="black"/>
<path d="M386.016 254.923C367.777 254.923 351.501 251.229 337.187 243.841C323.104 236.222 312.022 225.718 303.941 212.327C295.861 198.937 291.821 183.815 291.821 166.961C291.821 150.108 295.746 135.101 303.595 121.942C311.676 108.551 322.526 98.0467 336.148 90.428C349.769 82.8093 365.122 79 382.206 79C398.829 79 413.489 82.5785 426.187 89.7354C438.885 96.8924 448.812 106.82 455.969 119.518C463.357 132.215 467.051 146.76 467.051 163.152C467.051 166.153 466.82 169.385 466.358 172.848C466.127 176.081 465.55 179.89 464.627 184.276L319.525 184.623V148.261L442.117 147.915L419.261 163.152C419.03 153.455 417.529 145.49 414.759 139.257C411.988 132.793 407.833 127.944 402.292 124.712C396.982 121.249 390.402 119.518 382.552 119.518C374.241 119.518 366.969 121.48 360.735 125.405C354.733 129.099 350 134.409 346.537 141.335C343.305 148.261 341.689 156.688 341.689 166.615C341.689 176.542 343.42 185.084 346.883 192.241C350.577 199.168 355.656 204.593 362.121 208.518C368.816 212.212 376.665 214.059 385.669 214.059C393.981 214.059 401.484 212.673 408.179 209.903C414.874 206.902 420.761 202.515 425.84 196.743L454.93 225.833C446.619 235.529 436.576 242.802 424.802 247.65C413.027 252.498 400.099 254.923 386.016 254.923Z" fill="black"/>
<path d="M212.606 251.417V0H265.591V251.417H212.606Z" fill="black"/>
<path d="M41.5565 162.417V120.168H94.1947C100.89 120.168 107.008 118.783 112.549 116.012C118.09 113.242 122.476 109.202 125.708 103.892C128.941 98.5817 130.557 92.1173 130.557 84.4986C130.557 77.1108 128.941 70.7619 125.708 65.4519C122.476 60.1419 118.09 56.1017 112.549 53.3313C107.008 50.5608 100.89 49.1756 94.1947 49.1756H41.5565V6.92651H102.16C117.628 6.92651 131.596 10.0433 144.063 16.2767C156.529 22.5102 166.341 31.5141 173.498 43.2885C180.886 54.8319 184.58 68.5687 184.58 84.4986C184.58 100.429 180.886 114.281 173.498 126.055C166.341 137.599 156.529 146.603 144.063 153.067C131.596 159.3 117.628 162.417 102.16 162.417H41.5565ZM0 251.417V6.92651H54.3697V251.417H0Z" fill="black"/>
<path d="M515.904 252.196H466.824L537.377 161.727L466.824 74H520.505L587.991 161.727L515.904 252.196Z" fill="black"/>
<path d="M600.261 148.02L575.721 117.864L609.464 74H660.078L600.261 148.02Z" fill="black"/>
<path d="M600.261 174.064L575.721 204.22L612.532 252.196H660.078L600.261 174.064Z" fill="black"/>
</svg>
