<svg width="1379" height="329" viewBox="0 0 1379 329" fill="none" xmlns="http://www.w3.org/2000/svg">
<path d="M1297.51 295.194C1281.48 295.194 1267.24 291.965 1254.79 285.507C1242.59 278.809 1233.02 269.719 1226.07 258.238C1219.13 246.517 1215.66 233.122 1215.66 218.052V116.871H1270.59V217.335C1270.59 223.315 1271.55 228.458 1273.46 232.763C1275.61 237.069 1278.73 240.418 1282.79 242.81C1286.86 245.202 1291.77 246.398 1297.51 246.398C1305.65 246.398 1312.11 243.886 1316.9 238.863C1321.68 233.6 1324.08 226.424 1324.08 217.335V116.871H1379V217.694C1379 233.002 1375.53 246.517 1368.59 258.238C1361.65 269.719 1352.08 278.809 1339.87 285.507C1327.67 291.965 1313.55 295.194 1297.51 295.194Z" fill="white"/>
<path d="M1141.96 294.486L1080.93 204.068L1141.6 120.109H1202.98L1129.75 214.473L1131.55 191.869L1206.57 294.486H1141.96ZM1030.31 294.486V33.9976H1085.24V294.486H1030.31Z" fill="white"/>
<path d="M940.113 294.485V195.098C940.113 186.008 937.241 178.713 931.497 173.211C925.993 167.47 918.933 164.6 910.317 164.6C904.334 164.6 899.069 165.916 894.522 168.547C889.975 170.939 886.385 174.527 883.752 179.311C881.12 183.856 879.804 189.118 879.804 195.098L858.623 184.693C858.623 171.058 861.615 159.098 867.598 148.813C873.581 138.527 881.838 130.634 892.368 125.132C903.137 119.391 915.223 116.521 928.625 116.521C941.549 116.521 952.917 119.631 962.729 125.85C972.78 131.83 980.678 139.843 986.422 149.889C992.166 159.936 995.037 170.939 995.037 182.899V294.485H940.113ZM824.879 294.485V120.109H879.804V294.485H824.879Z" fill="white"/>
<path d="M731.289 292.328V117.952H786.214V292.328H731.289Z" fill="white"/>
<path d="M731.499 93.9122V43.7112C731.499 38.3465 735.848 33.9976 741.213 33.9976H786.424V84.1986C786.424 89.5633 782.075 93.9122 776.71 93.9122H731.499Z" fill="#01DE5B"/>
<path d="M603.12 295.195C582.298 295.195 564.349 291.847 549.272 285.149C534.434 278.212 520.792 267.807 508.348 253.933L544.964 217.695C553.101 227.024 562.076 234.319 571.888 239.582C581.939 244.605 593.547 247.116 606.709 247.116C618.676 247.116 627.889 244.963 634.351 240.658C641.052 236.352 644.403 230.372 644.403 222.718C644.403 215.781 642.249 210.16 637.941 205.854C633.633 201.549 627.889 197.841 620.71 194.732C613.769 191.622 605.991 188.632 597.376 185.762C588.999 182.891 580.623 179.662 572.247 176.074C563.871 172.247 556.093 167.583 548.913 162.081C541.973 156.34 536.348 149.284 532.041 140.912C527.733 132.301 525.579 121.537 525.579 108.62C525.579 93.072 529.288 79.6768 536.707 68.4344C544.366 57.1921 554.896 48.7005 568.298 42.9597C581.7 36.9797 597.136 33.9897 614.607 33.9897C632.317 33.9897 648.471 37.0993 663.07 43.3185C677.908 49.5377 690.113 58.0293 699.686 68.7932L663.07 105.032C655.412 97.1383 647.634 91.278 639.736 87.4508C632.078 83.6236 623.342 81.71 613.53 81.71C603.718 81.71 595.94 83.6236 590.196 87.4508C584.452 91.0388 581.58 96.3011 581.58 103.238C581.58 109.696 583.734 114.959 588.042 119.025C592.35 122.852 597.974 126.201 604.914 129.071C612.094 131.942 619.872 134.812 628.248 137.683C636.864 140.553 645.36 143.902 653.736 147.729C662.113 151.556 669.771 156.46 676.711 162.44C683.891 168.181 689.635 175.596 693.943 184.685C698.25 193.536 700.404 204.539 700.404 217.695C700.404 241.854 691.789 260.87 674.557 274.744C657.326 288.378 633.514 295.195 603.12 295.195Z" fill="white"/>
<path d="M298.665 174.261L299.2 173.724C303.067 169.839 305.237 164.574 305.237 159.077V53.116C305.237 41.6773 314.467 32.4033 325.852 32.4033H420.523C431.908 32.4033 441.138 41.6773 441.138 53.116V159.614C441.138 171.053 431.908 180.327 420.523 180.327H325.852C320.386 180.327 315.141 182.507 311.274 186.392C307.407 190.278 305.237 195.542 305.237 201.04V307.538C305.237 318.976 296.007 328.25 284.622 328.25H189.951C178.566 328.25 169.336 318.976 169.336 307.538V201.04C169.336 189.601 178.566 180.327 189.951 180.327H284.087C289.553 180.327 294.798 178.147 298.665 174.261Z" fill="#01DE5B"/>
<path d="M129.329 141.853L129.864 141.316C133.731 137.43 135.901 132.166 135.901 126.668V20.7127C135.901 9.27396 145.131 0 156.516 0H251.187C262.572 0 271.802 9.27396 271.802 20.7127V127.211C271.802 138.65 262.572 147.924 251.187 147.924H156.516C151.05 147.924 145.805 150.104 141.938 153.989C138.071 157.874 135.901 163.139 135.901 168.636V275.134C135.901 286.573 126.671 295.847 115.286 295.847H20.6147C9.23009 295.847 0 286.573 0 275.134V168.636C0 157.197 9.23009 147.924 20.6147 147.924H114.751C120.217 147.924 125.462 145.743 129.329 141.858V141.853Z" fill="#01DE5B"/>
</svg>
