<svg width="512" height="512" viewBox="0 0 512 512" fill="none" xmlns="http://www.w3.org/2000/svg">
<g clip-path="url(#clip0_4_7120)">
<path d="M256 512C397.385 512 512 397.385 512 256C512 114.615 397.385 0 256 0C114.615 0 0 114.615 0 256C0 397.385 114.615 512 256 512Z" fill="#F0F0F0"/>
<path d="M480.873 133.565C447.793 72.9359 390.91 27.1669 322.783 8.80493L311.653 133.565H480.873Z" fill="#0052B4"/>
<path d="M31.127 133.565H200.347L189.217 8.80493C121.09 27.1669 64.208 72.9369 31.127 133.565Z" fill="#0052B4"/>
<path d="M311.652 256V378.435H480.872C500.717 342.064 512 300.35 512 256H311.652Z" fill="#6DA544"/>
<path d="M200.348 256H0C0 300.35 11.283 342.064 31.127 378.435H200.347V256H200.348Z" fill="#6DA544"/>
<path d="M31.127 378.435C64.208 439.064 121.09 484.833 189.217 503.195L200.347 394.086L31.127 378.435Z" fill="#FFDA44"/>
<path d="M322.783 503.195C390.91 484.833 447.793 439.064 480.873 378.435L311.653 394.084L322.783 503.195Z" fill="#FFDA44"/>
<path d="M311.652 394.084L480.873 378.435H311.652V394.084Z" fill="#FFDA44"/>
<path d="M200.348 378.435H31.127L200.348 394.084V378.435Z" fill="#FFDA44"/>
<path d="M256 0C232.893 0 210.511 3.08 189.217 8.819V503.182C210.511 508.92 232.893 512 256 512C279.107 512 301.489 508.92 322.783 503.181V8.819C301.489 3.08 279.107 0 256 0V0Z" fill="#D80027"/>
<path d="M137.698 55.6521L144.604 76.9091H166.957L148.875 90.0471L155.782 111.304L137.698 98.1671L119.615 111.304L126.524 90.0471L108.442 76.9091H130.793L137.698 55.6521Z" fill="#FFDA44"/>
</g>
<defs>
<clipPath id="clip0_4_7120">
<rect width="512" height="512" fill="white"/>
</clipPath>
</defs>
</svg>
