<svg width="512" height="512" viewBox="0 0 512 512" fill="none" xmlns="http://www.w3.org/2000/svg">
<g clip-path="url(#clip0_4_7240)">
<path d="M512 256C512 397.384 397.384 512 256 512C114.616 512 0 397.384 0 256C0 256.061 256 0.028 256 0C397.384 0 512 114.616 512 256Z" fill="#FFDA44"/>
<path d="M256 122.435V208.778L166.957 122.435H256Z" fill="#0052B4"/>
<path d="M133.565 256H208.776L133.565 155.826L122.435 233.739L133.565 256Z" fill="#0052B4"/>
<path d="M255.315 256H256C256 255.77 256 255.546 256 255.315C255.772 255.544 255.544 255.772 255.315 256Z" fill="#F0F0F0"/>
<path d="M256 133.565C256 88.52 256 59.005 256 0H255.957C114.591 0.024 0 114.629 0 256H133.565V180.789L208.776 256H255.316C255.544 255.772 255.772 255.544 256.001 255.315C256.001 238.068 256.001 222.679 256.001 208.778L180.788 133.565H256Z" fill="#F0F0F0"/>
<path d="M256 224.519L165.045 133.566H133.565V133.568L255.998 256H256C256 256 256 234.293 256 224.519Z" fill="#D80027"/>
<path d="M129.515 33.3911C119.646 39.0111 110.191 45.2741 101.199 52.1111H111.703L83.941 72.2851L94.543 104.922L66.781 84.7521L63.827 86.8991C52.3 99.9891 42.08 114.257 33.391 129.515V256H100.174V100.176V100.174H256C256 79.1111 256 59.0451 256 33.3911H129.515Z" fill="#D80027"/>
<path d="M109.36 46.1521C106.599 48.0851 103.877 50.0721 101.196 52.1111L83.941 72.2851L66.781 84.7511L63.802 86.9151C57.516 94.0551 51.621 101.547 46.151 109.36C52.386 112.386 59.385 114.087 66.781 114.087C92.907 114.087 114.085 92.9091 114.085 66.7831C114.087 59.3851 112.387 52.3881 109.36 46.1521Z" fill="#0052B4"/>
<path d="M63.803 86.9151L66.782 84.7511L94.544 104.922L83.941 72.2851L111.701 52.1111H101.195C87.601 62.4501 75.074 74.1141 63.803 86.9151Z" fill="#FFDA44"/>
<path d="M176.942 44.522L182.468 61.527H200.348L185.883 72.038L191.406 89.043L176.942 78.533L162.477 89.043L167.999 72.038L153.534 61.527H171.415L176.942 44.522Z" fill="#FFDA44"/>
<path d="M66.783 155.826L72.309 172.831H90.189L75.725 183.343L81.248 200.348L66.783 189.837L52.317 200.348L57.84 183.343L43.376 172.831H61.256L66.783 155.826Z" fill="#FFDA44"/>
</g>
<defs>
<clipPath id="clip0_4_7240">
<rect width="512" height="512" fill="white"/>
</clipPath>
</defs>
</svg>
