<svg width="512" height="512" viewBox="0 0 512 512" fill="none" xmlns="http://www.w3.org/2000/svg">
<g clip-path="url(#clip0_4_7241)">
<path d="M367.304 25.402C333.648 9.128 295.891 0 256 0C216.109 0 178.352 9.128 144.696 25.402L122.435 256L144.696 486.598C178.352 502.872 216.109 512 256 512C295.891 512 333.648 502.872 367.304 486.598L389.565 256L367.304 25.402Z" fill="#F0F0F0"/>
<path d="M144.696 25.4109C59.065 66.8169 0 154.506 0 256C0 357.494 59.065 445.183 144.696 486.589V25.4109Z" fill="#6DA544"/>
<path d="M367.304 25.4109V486.589C452.935 445.183 512 357.493 512 256C512 154.507 452.935 66.8169 367.304 25.4109Z" fill="#6DA544"/>
<path d="M322.783 333.913L256 122.435L189.217 333.913H239.304V389.565H272.696V333.913H322.783Z" fill="#6DA544"/>
</g>
<defs>
<clipPath id="clip0_4_7241">
<rect width="512" height="512" fill="white"/>
</clipPath>
</defs>
</svg>
