<svg width="512" height="512" viewBox="0 0 512 512" fill="none" xmlns="http://www.w3.org/2000/svg">
<g clip-path="url(#clip0_4_7296)">
<path d="M378.435 31.127C342.064 11.283 300.35 0 256 0C211.65 0 169.936 11.283 133.565 31.127L111.304 256L133.565 480.873C169.936 500.717 211.65 512 256 512C300.35 512 342.064 500.717 378.435 480.873L400.696 256L378.435 31.127Z" fill="#FFDA44"/>
<path d="M133.565 480.871V31.126C53.989 74.546 0 158.965 0 256C0 353.035 53.989 437.454 133.565 480.871Z" fill="#338AF3"/>
<path d="M512 256C512 158.965 458.011 74.546 378.435 31.126V480.871C458.011 437.454 512 353.035 512 256Z" fill="#6DA544"/>
<path d="M200.348 322.783L155.825 256L200.347 189.217L244.871 256L200.348 322.783Z" fill="#6DA544"/>
<path d="M311.652 322.783L267.13 256L311.652 189.217L356.174 256L311.652 322.783Z" fill="#6DA544"/>
<path d="M256 411.826L211.478 345.043L256 278.261L300.522 345.043L256 411.826Z" fill="#6DA544"/>
</g>
<defs>
<clipPath id="clip0_4_7296">
<rect width="512" height="512" fill="white"/>
</clipPath>
</defs>
</svg>
