<svg width="512" height="512" viewBox="0 0 512 512" fill="none" xmlns="http://www.w3.org/2000/svg">
<g clip-path="url(#clip0_4_7297)">
<path d="M25.402 144.696C9.128 178.352 0 216.109 0 256C0 295.891 9.128 333.648 25.402 367.304L256 389.565L486.598 367.304C502.872 333.648 512 295.891 512 256C512 216.109 502.872 178.352 486.598 144.696L256 122.435L25.402 144.696Z" fill="#F0F0F0"/>
<path d="M25.4109 367.304C66.8169 452.935 154.506 512 256 512C357.494 512 445.183 452.935 486.589 367.304H25.4109Z" fill="black"/>
<path d="M25.4109 144.696H486.589C445.183 59.065 357.494 0 256 0C154.506 0 66.8169 59.065 25.4109 144.696Z" fill="#D80027"/>
<path d="M74.98 74.98C-24.994 174.954 -24.994 337.045 74.98 437.02C116.293 395.707 156.026 355.974 256 256L74.98 74.98Z" fill="#496E2D"/>
</g>
<defs>
<clipPath id="clip0_4_7297">
<rect width="512" height="512" fill="white"/>
</clipPath>
</defs>
</svg>
