<svg width="512" height="512" viewBox="0 0 512 512" fill="none" xmlns="http://www.w3.org/2000/svg">
<g clip-path="url(#clip0_4_7299)">
<path d="M486.598 367.304C502.872 333.649 512 295.89 512 256C512 216.11 502.872 178.351 486.598 144.696L256 133.565L25.402 144.695C9.128 178.351 0 216.11 0 256C0 295.89 9.128 333.649 25.402 367.304L256 378.435L486.598 367.304Z" fill="#FFDA44"/>
<path d="M256 0C154.506 0 66.81 59.065 25.402 144.696H486.597C445.19 59.065 357.493 0 256 0Z" fill="black"/>
<path d="M256 512C154.506 512 66.81 452.935 25.402 367.304H486.597C445.19 452.935 357.493 512 256 512Z" fill="#0052B4"/>
<path d="M499.911 178.087H12.089C4.247 202.656 0 228.831 0 256C0 283.169 4.247 309.344 12.089 333.913H499.91C507.753 309.344 512 283.169 512 256C512 228.831 507.753 202.656 499.911 178.087Z" fill="#A2001D"/>
<path d="M89.043 244.87H422.956V267.131H89.043V244.87Z" fill="#FFDA44"/>
<path d="M133.565 200.348H378.435V222.609H133.565V200.348Z" fill="#FFDA44"/>
<path d="M380.025 256C380.025 256 322.782 322.783 256 322.783C189.218 322.783 189.217 256 189.217 256C189.217 256 189.217 189.217 256 189.217C322.783 189.217 380.025 256 380.025 256Z" fill="#F0F0F0"/>
<path d="M256 322.783C189.217 322.783 131.975 256 131.975 256C131.975 256 189.217 189.217 256 189.217" fill="black"/>
<path d="M211.478 233.739H233.739V278.261H211.478V233.739Z" fill="#F0F0F0"/>
<path d="M278.261 233.739H300.522V278.261H278.261V233.739Z" fill="black"/>
<path d="M89.043 278.261C101.337 278.261 111.304 268.294 111.304 256C111.304 243.706 101.337 233.739 89.043 233.739C76.7486 233.739 66.782 243.706 66.782 256C66.782 268.294 76.7486 278.261 89.043 278.261Z" fill="#0052B4"/>
<path d="M422.957 278.261C435.251 278.261 445.218 268.294 445.218 256C445.218 243.706 435.251 233.739 422.957 233.739C410.663 233.739 400.696 243.706 400.696 256C400.696 268.294 410.663 278.261 422.957 278.261Z" fill="#0052B4"/>
</g>
<defs>
<clipPath id="clip0_4_7299">
<rect width="512" height="512" fill="white"/>
</clipPath>
</defs>
</svg>
