<svg width="512" height="512" viewBox="0 0 512 512" fill="none" xmlns="http://www.w3.org/2000/svg">
<g clip-path="url(#clip0_4_7302)">
<path d="M256 512C397.385 512 512 397.385 512 256C512 114.615 397.385 0 256 0C114.615 0 0 114.615 0 256C0 397.385 114.615 512 256 512Z" fill="#F0F0F0"/>
<path d="M256 0C145.929 0 52.094 69.472 15.923 166.957H496.078C459.906 69.472 366.071 0 256 0Z" fill="#D80027"/>
<path d="M256 512C366.071 512 459.906 442.528 496.077 345.043H15.923C52.094 442.528 145.929 512 256 512Z" fill="black"/>
<path d="M152.962 194.783L166.775 237.295H211.478L175.313 263.573L189.127 306.087L152.962 279.812L116.797 306.087L130.611 263.573L94.446 237.295H139.149L152.962 194.783Z" fill="#6DA544"/>
<path d="M359.038 194.783L372.851 237.295H417.555L381.389 263.573L395.203 306.087L359.038 279.812L322.873 306.087L336.687 263.573L300.522 237.295H345.225L359.038 194.783Z" fill="#6DA544"/>
</g>
<defs>
<clipPath id="clip0_4_7302">
<rect width="512" height="512" fill="white"/>
</clipPath>
</defs>
</svg>
