<svg width="512" height="512" viewBox="0 0 512 512" fill="none" xmlns="http://www.w3.org/2000/svg">
<g clip-path="url(#clip0_4_7304)">
<path d="M25.402 144.696C9.128 178.352 0 216.11 0 256C0 295.89 9.128 333.648 25.402 367.304L256 389.565L486.598 367.304C502.872 333.648 512 295.89 512 256C512 216.11 502.872 178.352 486.598 144.696L256 122.435L25.402 144.696Z" fill="#F0F0F0"/>
<path d="M25.4111 367.304C66.8181 452.934 154.507 512 256 512C357.493 512 445.183 452.934 486.589 367.304H25.4111Z" fill="#6DA544"/>
<path d="M25.4111 144.696H486.589C445.183 59.066 357.493 0 256 0C154.507 0 66.8181 59.066 25.4111 144.696Z" fill="#D80027"/>
<path d="M211.478 322.783H300.522V284.939L282.713 293.843L256 267.13L229.287 293.843L211.478 284.939V322.783Z" fill="#FFDA44"/>
<path d="M160.532 278.261L164.677 291.015H178.087L167.237 298.898L171.382 311.652L160.532 303.77L149.682 311.652L153.827 298.898L142.977 291.015H156.387L160.532 278.261Z" fill="#FFDA44"/>
<path d="M173.381 233.739L177.526 246.493H190.936L180.086 254.376L184.23 267.13L173.381 259.248L162.531 267.13L166.676 254.376L155.826 246.493H169.236L173.381 233.739Z" fill="#FFDA44"/>
<path d="M210.113 200.348L214.258 213.102H227.667L216.819 220.985L220.962 233.739L210.113 225.857L199.264 233.739L203.408 220.985L192.558 213.102H205.969L210.113 200.348Z" fill="#FFDA44"/>
<path d="M351.468 278.261L347.323 291.015H333.913L344.763 298.898L340.618 311.652L351.468 303.77L362.317 311.652L358.173 298.898L369.023 291.015H355.613L351.468 278.261Z" fill="#FFDA44"/>
<path d="M338.619 233.739L334.474 246.493H321.064L331.914 254.376L327.769 267.13L338.619 259.248L349.469 267.13L345.324 254.376L356.174 246.493H342.764L338.619 233.739Z" fill="#FFDA44"/>
<path d="M301.887 200.348L297.742 213.102H284.333L295.181 220.985L291.037 233.739L301.887 225.857L312.736 233.739L308.592 220.985L319.441 213.102H306.031L301.887 200.348Z" fill="#FFDA44"/>
<path d="M256 183.651L260.145 196.405H273.555L262.705 204.288L266.85 217.042L256 209.16L245.15 217.042L249.295 204.288L238.445 196.405H251.855L256 183.651Z" fill="#FFDA44"/>
</g>
<defs>
<clipPath id="clip0_4_7304">
<rect width="512" height="512" fill="white"/>
</clipPath>
</defs>
</svg>
