<svg width="512" height="512" viewBox="0 0 512 512" fill="none" xmlns="http://www.w3.org/2000/svg">
<g clip-path="url(#clip0_4_7316)">
<path d="M512 256C512 397.384 397.384 512 256 512C114.616 512 0 397.384 0 256C0 256.061 256 0.028 256 0C397.384 0 512 114.616 512 256Z" fill="#0052B4"/>
<path d="M255.315 256H256C256 255.77 256 255.546 256 255.315C255.772 255.544 255.544 255.772 255.315 256Z" fill="#F0F0F0"/>
<path d="M256 133.565C256 88.52 256 59.005 256 0H255.957C114.591 0.024 0 114.629 0 256H133.565V180.789L208.776 256H255.316C255.544 255.772 255.772 255.544 256.001 255.315C256.001 238.068 256.001 222.679 256.001 208.778L180.788 133.565H256Z" fill="#F0F0F0"/>
<path d="M129.515 33.3911C89.4761 56.1901 56.1891 89.4761 33.3911 129.515V256H100.174V100.176V100.174H256C256 79.1111 256 59.0451 256 33.3911H129.515Z" fill="#D80027"/>
<path d="M256 224.519L165.045 133.566H133.565V133.568L255.998 256H256C256 256 256 234.293 256 224.519Z" fill="#D80027"/>
<path d="M289.391 133.565V255.999C289.391 315.639 367.304 333.913 367.304 333.913C367.304 333.913 445.217 315.639 445.217 255.999V133.565H289.391Z" fill="#FFDA44"/>
<path d="M356.174 178.087C356.174 190.382 346.208 222.609 333.913 222.609C321.618 222.609 311.652 190.382 311.652 178.087C311.652 165.792 333.913 155.826 333.913 155.826C333.913 155.826 356.174 165.792 356.174 178.087Z" fill="#FF9811"/>
<path d="M415.245 202.332C418.837 193.567 421.631 180.755 421.631 174.377C421.631 164.131 408.274 155.826 408.274 155.826C408.274 155.826 394.917 164.132 394.917 174.377C394.917 180.755 397.711 193.567 401.303 202.332L393.592 219.742C398.124 221.584 403.078 222.608 408.273 222.608C413.468 222.608 418.422 221.584 422.954 219.742L415.245 202.332Z" fill="#A2001D"/>
<path d="M350.609 256C350.609 256 339.479 278.261 339.479 300.522H395.131C395.13 278.261 384 256 384 256L367.304 244.87L350.609 256Z" fill="#6DA544"/>
<path d="M384 256V250.435C384 241.215 376.525 233.739 367.304 233.739C358.084 233.739 350.608 241.214 350.608 250.435V256H384Z" fill="#D80027"/>
</g>
<defs>
<clipPath id="clip0_4_7316">
<rect width="512" height="512" fill="white"/>
</clipPath>
</defs>
</svg>
