<svg width="512" height="512" viewBox="0 0 512 512" fill="none" xmlns="http://www.w3.org/2000/svg">
<g clip-path="url(#clip0_4_7326)">
<path d="M511.999 256C511.999 244.683 511.256 233.54 509.832 222.61H222.606C170.305 170.312 74.9759 74.9888 74.9799 74.9808C-24.9939 174.955 -24.9939 337.044 74.9799 437.02L222.609 289.392H509.832C511.255 278.461 511.999 267.317 511.999 256Z" fill="black"/>
<path d="M511.926 261.823C511.915 262.317 511.904 262.813 511.89 263.307C511.902 262.811 511.914 262.317 511.926 261.823Z" fill="#F0F0F0"/>
<path d="M511.68 268.819C511.657 269.308 511.623 269.795 511.597 270.283C511.623 269.796 511.655 269.308 511.68 268.819Z" fill="#F0F0F0"/>
<path d="M511.335 274.398C511.284 275.117 511.234 275.836 511.176 276.553C511.234 275.836 511.283 275.117 511.335 274.398Z" fill="#F0F0F0"/>
<path d="M510.48 228.099C510.574 228.955 510.668 229.81 510.753 230.668C510.668 229.809 510.573 228.955 510.48 228.099Z" fill="#F0F0F0"/>
<path d="M511.596 241.718C511.623 242.206 511.656 242.693 511.679 243.182C511.655 242.693 511.623 242.205 511.596 241.718Z" fill="#F0F0F0"/>
<path d="M511.889 248.696C511.903 249.19 511.913 249.686 511.925 250.18C511.914 249.684 511.902 249.19 511.889 248.696Z" fill="#F0F0F0"/>
<path d="M511.176 235.447C511.234 236.164 511.284 236.883 511.335 237.602C511.283 236.883 511.234 236.164 511.176 235.447Z" fill="#F0F0F0"/>
<path d="M509.832 222.609C509.947 223.486 510.049 224.368 510.154 225.247C494.96 98.3648 386.974 0.000976561 256 0.000976561C185.306 0.000976561 121.305 28.6559 74.9779 74.9848L222.602 222.61H509.832V222.609Z" fill="#D80027"/>
<path d="M509.832 289.391H222.602L74.9779 437.016C121.305 483.344 185.306 512 256 512C386.974 512 494.961 413.636 510.154 286.753C510.049 287.632 509.945 288.514 509.832 289.391Z" fill="#6DA544"/>
<path d="M510.752 281.332C510.667 282.19 510.573 283.045 510.479 283.901C510.573 283.045 510.668 282.191 510.752 281.332Z" fill="#F0F0F0"/>
<path d="M511.335 237.602C511.432 238.971 511.52 240.343 511.595 241.718C511.519 240.343 511.432 238.971 511.335 237.602Z" fill="black"/>
<path d="M510.154 225.247C510.269 226.196 510.378 227.147 510.48 228.099C510.376 227.147 510.267 226.197 510.154 225.247Z" fill="black"/>
<path d="M510.752 230.668C510.908 232.257 511.049 233.85 511.176 235.449C511.05 233.85 510.909 232.256 510.752 230.668Z" fill="black"/>
<path d="M511.999 256C511.999 257.947 511.969 259.886 511.926 261.821C511.969 259.885 511.999 257.946 511.999 256Z" fill="black"/>
<path d="M511.596 270.283C511.52 271.658 511.432 273.03 511.336 274.399C511.432 273.03 511.519 271.658 511.596 270.283Z" fill="black"/>
<path d="M511.176 276.554C511.049 278.151 510.908 279.745 510.752 281.333C510.909 279.745 511.05 278.151 511.176 276.554Z" fill="black"/>
<path d="M510.48 283.901C510.378 284.853 510.269 285.803 510.154 286.753C510.267 285.804 510.376 284.853 510.48 283.901Z" fill="black"/>
<path d="M511.926 250.179C511.969 252.115 511.999 254.055 511.999 256C511.999 254.055 511.969 252.115 511.926 250.179Z" fill="black"/>
<path d="M511.68 243.182C511.77 245.014 511.838 246.853 511.89 248.695C511.838 246.852 511.771 245.014 511.68 243.182Z" fill="black"/>
<path d="M511.889 263.307C511.837 265.149 511.769 266.988 511.679 268.82C511.771 266.987 511.838 265.149 511.889 263.307Z" fill="black"/>
<path d="M511.755 244.777H213.201L59.844 91.4437C54.887 96.6717 49.514 103.972 46.191 109.171L192.85 255.906L46.068 402.691C48.974 407.861 55.305 415.513 59.75 420.492L213.204 267.038H511.791C511.95 263.346 512 259.638 512 255.908C511.999 250.91 511.861 247.225 511.755 244.777Z" fill="#FFDA44"/>
<path d="M62.1869 310.572V289.129C83.5849 289.129 100.992 271.72 100.992 250.324C100.992 235.185 88.6749 222.869 73.5369 222.869C63.2239 222.869 54.833 231.259 54.833 241.574C54.833 248.169 60.1979 253.535 66.7939 253.535C70.5219 253.535 73.5549 250.5 73.5549 246.772H94.9969C94.9969 262.325 82.3449 274.977 66.7949 274.977C48.376 274.978 33.393 259.992 33.393 241.576C33.393 219.439 51.403 201.43 73.5379 201.43C100.5 201.43 122.436 223.366 122.436 250.327C122.435 283.544 95.4079 310.572 62.1869 310.572Z" fill="#FFDA44"/>
</g>
<defs>
<clipPath id="clip0_4_7326">
<rect width="512.001" height="512.001" fill="white"/>
</clipPath>
</defs>
</svg>
