<svg width="512" height="512" viewBox="0 0 512 512" fill="none" xmlns="http://www.w3.org/2000/svg">
<path d="M256 0.000976561C397.384 0.000976561 512 114.617 512 256C512 397.384 397.384 512 256 512C114.617 512 0.000976561 397.384 0.000976561 256" fill="#FFDA44"/>
<path d="M250.436 113.779H468.879C454.495 92.292 436.942 73.112 416.892 56.89H250.436V113.779Z" fill="#D80027"/>
<path d="M250.436 227.557H510.42C508.238 207.831 503.817 188.784 497.414 170.669H250.436V227.557Z" fill="#D80027"/>
<path d="M14.588 341.335H497.412C503.815 323.22 508.237 304.171 510.419 284.445H1.58203C3.76202 304.172 8.18402 323.221 14.588 341.335Z" fill="#D80027"/>
<path d="M95.1079 455.111H416.891C436.94 438.89 454.494 419.708 468.878 398.222H43.123C57.5069 419.708 75.0589 438.889 95.1079 455.111Z" fill="#D80027"/>
<path d="M256.001 0.000976561C114.616 0.000976561 -0.000999992 114.617 6.54347e-09 256.002C58.4259 256 114.616 256.002 256 256.002L256.001 0.000976561Z" fill="#4A1F63"/>
<path d="M211.478 133.566V155.827H200.348V133.566H178.088V155.827H166.958V111.305H122.436V155.827H111.305V133.566H89.0447V155.827H77.9137V133.566H55.6517V200.348H233.739V133.566H211.478Z" fill="#F0F0F0"/>
</svg>
