<svg width="512" height="512" viewBox="0 0 512 512" fill="none" xmlns="http://www.w3.org/2000/svg">
<g clip-path="url(#clip0_4_7110)">
<path d="M256.002 511.964C397.367 511.964 511.965 397.366 511.965 256.001C511.965 114.637 397.367 0.0390633 256.002 0.0390633C114.638 0.0390633 0.0400399 114.637 0.0400399 256.001C0.0400399 397.366 114.638 511.964 256.002 511.964Z" fill="#F0F0F0"/>
<path d="M34.3308 128.019C22.7776 148.027 14.2554 168.946 8.58026 190.253L436.647 437.399C452.263 421.83 466.119 403.989 477.669 383.981L34.3308 128.019Z" fill="black"/>
<path d="M383.983 34.3297C281.564 -24.8006 155.282 -5.09315 75.3531 74.6005L503.42 321.745C532.474 212.68 486.399 93.4609 383.983 34.3297Z" fill="#FFDA44"/>
<path d="M128.02 477.67C230.436 536.8 356.722 517.093 436.649 437.4L8.58057 190.253C-20.471 299.32 25.6019 418.54 128.02 477.67Z" fill="#FFDA44"/>
<path d="M328.338 228.178C328.338 268.128 295.951 300.515 256 300.515C216.049 300.515 183.663 268.129 183.663 228.178C183.663 215.721 186.812 204 192.358 193.767C176.661 209.82 166.969 231.773 166.969 255.999C166.969 305.169 206.829 345.03 256 345.03C305.171 345.03 345.031 305.17 345.031 255.999C345.031 231.773 335.341 209.82 319.643 193.767C325.189 204.002 328.338 215.721 328.338 228.178Z" fill="#D80027"/>
<path d="M239.309 144.713H272.695V311.646H239.309V144.713Z" fill="#D80027"/>
<path d="M311.644 178.099H200.357C200.357 185.782 207.05 192.01 214.732 192.01H214.268C214.268 199.693 220.497 205.921 228.179 205.921C228.179 213.604 234.408 219.833 242.091 219.833H269.912C277.595 219.833 283.823 213.604 283.823 205.921C291.507 205.921 297.735 199.693 297.735 192.01H297.272C304.952 192.009 311.644 185.783 311.644 178.099Z" fill="#D80027"/>
<path d="M178.1 322.774H333.904V356.16H178.1V322.774Z" fill="#D80027"/>
<path d="M289.388 333.903H356.16V367.29H289.388V333.903Z" fill="#D80027"/>
<path d="M155.843 333.903H222.616V367.29H155.843V333.903Z" fill="#D80027"/>
</g>
<defs>
<clipPath id="clip0_4_7110">
<rect width="511.989" height="511.989" fill="white"/>
</clipPath>
</defs>
</svg>
