<svg width="512" height="512" viewBox="0 0 512 512" fill="none" xmlns="http://www.w3.org/2000/svg">
<g clip-path="url(#clip0_4_7140)">
<path d="M256 512C397.385 512 512 397.385 512 256C512 114.615 397.385 0 256 0C114.615 0 0 114.615 0 256C0 397.385 114.615 512 256 512Z" fill="#F0F0F0"/>
<path d="M306.087 507.087C407.29 487.011 487.011 407.289 507.087 306.087H306.087V507.087Z" fill="#496E2D"/>
<path d="M4.91309 306.087C24.9881 407.289 104.71 487.011 205.913 507.087V306.087H4.91309Z" fill="#496E2D"/>
<path d="M507.087 205.913C487.011 104.711 407.29 24.989 306.087 4.91302V205.913H507.087Z" fill="#496E2D"/>
<path d="M205.913 4.91302C104.71 24.989 24.9881 104.711 4.91309 205.913H205.913V4.91302Z" fill="#496E2D"/>
<path d="M239.304 306.087H205.913V507.087C216.81 509.248 227.957 510.712 239.304 511.443V306.087Z" fill="#FFDA44"/>
<path d="M239.304 205.913V0.557007C227.957 1.28701 216.809 2.75201 205.913 4.91301V205.913H239.304Z" fill="#FFDA44"/>
<path d="M272.696 0.557C267.174 0.2 261.611 0 256 0C250.389 0 244.826 0.2 239.304 0.557V205.914H272.695V0.557H272.696Z" fill="black"/>
<path d="M239.304 511.443C244.826 511.8 250.389 512 256 512C261.611 512 267.174 511.8 272.696 511.443V306.087H239.305V511.443H239.304Z" fill="black"/>
<path d="M205.913 239.304V205.913H4.91264C2.75064 216.811 1.28664 227.957 0.556641 239.304H205.913Z" fill="#FFDA44"/>
<path d="M306.087 239.304H511.444C510.714 227.957 509.249 216.811 507.088 205.913H306.088V239.304H306.087Z" fill="#FFDA44"/>
<path d="M306.087 272.696H511.444C511.8 267.175 512 261.611 512 256C512 250.389 511.8 244.825 511.443 239.304H306.087V272.696Z" fill="black"/>
<path d="M0.557 239.304C0.201 244.825 0 250.389 0 256C0 261.611 0.201 267.175 0.557 272.696H205.914V239.305H0.557V239.304Z" fill="black"/>
<path d="M256 378.435C323.619 378.435 378.435 323.619 378.435 256C378.435 188.381 323.619 133.565 256 133.565C188.381 133.565 133.565 188.381 133.565 256C133.565 323.619 188.381 378.435 256 378.435Z" fill="#D80027"/>
<path d="M283.894 269.66C274.787 251.447 262.95 232.987 262.95 232.987C262.95 232.987 263.244 224.582 263.244 219.574C263.244 212.03 257.128 205.914 249.584 205.914C242.437 205.914 236.581 211.405 235.984 218.396C230.364 218.763 225.917 223.425 225.917 229.137C225.917 233.29 228.27 236.889 231.714 238.688C233.426 234.684 236.778 231.558 240.924 230.133C241.6 230.686 242.326 231.18 243.101 231.599L244.851 232.437C244.851 232.437 238.362 250.728 238.362 260.554C238.362 288.178 256.576 296.697 256.576 296.697V296.982L247.469 306.088H265.682V287.874L274.789 296.981C274.869 296.81 292.039 285.951 283.894 269.66Z" fill="#496E2D"/>
<path d="M255.999 155.826L260.143 168.58H273.553L262.704 176.463L266.849 189.217L255.999 181.335L245.149 189.217L249.294 176.463L238.445 168.58H251.855L255.999 155.826Z" fill="#496E2D"/>
<path d="M197.119 174.958L207.967 182.841L218.817 174.957L214.673 187.713L225.523 195.594L212.112 195.595L207.968 208.349L203.823 195.595L190.413 195.594L201.262 187.711L197.119 174.958Z" fill="#496E2D"/>
<path d="M160.729 225.045H174.138L178.283 212.291L182.427 225.045L195.838 225.044L184.989 232.928L189.134 245.682L178.283 237.799L167.434 245.681L171.577 232.927L160.729 225.045Z" fill="#496E2D"/>
<path d="M160.729 286.955L171.577 279.074L167.433 266.319L178.283 274.202L189.133 266.319L184.989 279.073L195.839 286.956L182.427 286.957L178.283 299.71L174.138 286.955H160.729Z" fill="#496E2D"/>
<path d="M197.119 337.042L201.262 324.29L190.412 316.407H203.823L207.968 303.652L212.112 316.406H225.523L214.673 324.29L218.817 337.043L207.967 329.16L197.119 337.042Z" fill="#496E2D"/>
<path d="M255.999 356.174L251.855 343.422H238.445L249.294 335.538L245.149 322.784L255.999 330.665L266.848 322.783L262.704 335.538L273.553 343.421L260.143 343.422L255.999 356.174Z" fill="#496E2D"/>
<path d="M314.88 337.042L304.032 329.16L293.183 337.044L297.326 324.29L286.476 316.407L299.887 316.406L304.03 303.652L308.176 316.407H321.586L310.737 324.29L314.88 337.042Z" fill="#496E2D"/>
<path d="M351.27 286.955H337.861L333.716 299.71L329.572 286.957H316.16L327.01 279.073L322.865 266.32L333.716 274.202L344.564 266.32L340.422 279.074L351.27 286.955Z" fill="#496E2D"/>
<path d="M351.27 225.045L340.422 232.927L344.565 245.681L333.716 237.799L322.866 245.683L327.01 232.928L316.16 225.046L329.572 225.044L333.715 212.292L337.861 225.045H351.27Z" fill="#496E2D"/>
<path d="M314.88 174.958L310.737 187.711L321.586 195.594H308.176L304.032 208.349L299.887 195.595L286.476 195.596L297.326 187.711L293.182 174.959L304.032 182.84L314.88 174.958Z" fill="#496E2D"/>
</g>
<defs>
<clipPath id="clip0_4_7140">
<rect width="512" height="512" fill="white"/>
</clipPath>
</defs>
</svg>
