<svg width="512" height="512" viewBox="0 0 512 512" fill="none" xmlns="http://www.w3.org/2000/svg">
<g clip-path="url(#clip0_4_7293)">
<path d="M0.001 44.5221H0V467.478H0.001V256.001V44.5221Z" fill="#FF9811"/>
<path d="M255.999 511.999C397.384 511.999 511.999 397.384 511.999 255.999C511.999 114.615 397.384 0 255.999 0C114.615 0 0 114.615 0 255.999C0 397.384 114.615 511.999 255.999 511.999Z" fill="#FFDA44"/>
<path d="M200.349 44.5221H111.714C107.786 47.2071 103.942 50.0021 100.175 52.8951L77.9142 255.999L100.175 459.104C103.942 461.998 107.786 464.793 111.714 467.477H200.349V44.5221Z" fill="#FF9811"/>
<path d="M0.000976564 256.001C0.000976564 338.747 39.2691 412.309 100.175 459.106V52.8961C39.2691 99.6942 0.000976564 173.256 0.000976564 256.001Z" fill="#6DA544"/>
<path d="M411.827 156.064V162.469L412.065 162.505L411.827 156.064Z" fill="#FFDA44"/>
<path d="M491.596 322.783H443.363L422.958 345.044V389.566H378.436V367.305H400.697V322.783H300.523V350.609H278.262V297.578C271.432 291.464 267.132 282.583 267.132 272.695V128C267.132 109.559 282.082 94.6092 300.523 94.6092V300.523H345.045L360.321 287.792C357.653 281.436 356.175 274.458 356.175 267.131V233.74H322.784V166.958H389.566C389.566 155.828 406.262 144.697 406.262 144.697C406.262 144.697 422.958 155.827 422.958 166.958V183.654V233.741C435.341 233.888 455.015 233.567 476.27 233.741C470.686 223.981 467.479 212.4 467.479 200.35C467.479 180.709 475.959 163.051 489.457 150.831C470.001 107.716 438.955 70.9541 400.288 44.5221H233.741V467.479H400.289C447.308 435.338 483.057 387.927 500.401 332.389L491.596 322.783Z" fill="#A2001D"/>
</g>
<defs>
<clipPath id="clip0_4_7293">
<rect width="511.999" height="511.999" fill="white"/>
</clipPath>
</defs>
</svg>
