<svg width="512" height="512" viewBox="0 0 512 512" fill="none" xmlns="http://www.w3.org/2000/svg">
<g clip-path="url(#clip0_4_7294)">
<path d="M256 512C397.385 512 512 397.385 512 256C512 114.615 397.385 0 256 0C114.615 0 0 114.615 0 256C0 397.385 114.615 512 256 512Z" fill="#F0F0F0"/>
<path d="M457.089 205.913H372.869C372.869 190.545 360.411 178.087 345.043 178.087L322.782 222.609C322.782 222.609 346.527 289.391 345.785 289.391H373.61C388.979 289.391 401.436 276.934 401.436 261.566C416.805 261.566 429.262 249.108 429.262 233.74H428.335C443.703 233.739 457.089 221.282 457.089 205.913Z" fill="#ACABB1"/>
<path d="M54.9103 205.913H139.13C139.13 190.545 151.589 178.087 166.956 178.087L189.217 222.609C189.217 222.609 165.472 289.391 166.215 289.391H138.389C123.02 289.391 110.563 276.934 110.563 261.566C95.1943 261.566 82.7371 249.108 82.7371 233.74H83.6639C68.2952 233.739 54.9103 221.282 54.9103 205.913Z" fill="#ACABB1"/>
<path d="M345.043 356.173V367.303H166.956V356.173H122.434V400.695H166.956V411.825H345.043V400.695H389.565V356.173H345.043Z" fill="#FFDA44"/>
<path d="M166.956 178.086V289.389C166.956 357.548 255.999 378.433 255.999 378.433C255.999 378.433 345.042 357.548 345.042 289.389V178.086L255.999 166.956L166.956 178.086Z" fill="#0052B4"/>
<path d="M166.957 222.613H345.043V289.395H166.957V222.613Z" fill="#D80027"/>
<path d="M300.52 122.434V139.13L289.39 144.696L278.26 133.565V100.173H233.739V133.565L222.608 144.696L211.477 139.13V122.434H166.956V178.086H345.043V122.434H300.52Z" fill="#FFDA44"/>
</g>
<defs>
<clipPath id="clip0_4_7294">
<rect width="511.58" height="511.58" fill="white" transform="scale(1.00082)"/>
</clipPath>
</defs>
</svg>
